$MeshFormat
2.2 0 8
$EndMeshFormat
$Nodes
405
1 0 0 0
2 1 0 0
3 1 1 0
4 0 1 0
5 0 0.09 0.6
6 1 -0.0290960610177153 0.7487497215678703
7 1.080536162915086 0.9709039389822847 0.5249042825061472
8 0.08053616291508579 1.09 0.6
9 0.1249999999997731 0 0
10 0.2499999999994109 0 0
11 0.3749999999990461 0 0
12 0.4999999999986921 0 0
13 0.6249999999990109 0 0
14 0.7499999999993406 0 0
15 0.8749999999996703 0 0
16 1 0.1249999999997731 0
17 1 0.2499999999994109 0
18 1 0.3749999999990461 0
19 1 0.4999999999986921 0
20 1 0.6249999999990109 0
21 1 0.7499999999993406 0
22 1 0.8749999999996703 0
23 0.8749999999995012 1 0
24 0.7500000000003471 1 0
25 0.625000000001214 1 0
26 0.5000000000020595 1 0
27 0.3750000000015609 1 0
28 0.2500000000010405 1 0
29 0.1250000000005203 1 0
30 0 0.8749999999995012 0
31 0 0.7500000000003471 0
32 0 0.625000000001214 0
33 0 0.5000000000020595 0
34 0 0.3750000000015609 0
35 0 0.2500000000010405 0
36 0 0.1250000000005203 0
37 0.1249999999997731 0.08747362758326321 0.6316356484723095
38 0.2499999999994109 0.08003634494613121 0.6618481172613769
39 0.3749999999990461 0.06810569310437947 0.6892782506730579
40 0.4999999999986921 0.05235147805193144 0.7126920607708237
41 0.6249999999990109 0.03365816677436486 0.7310362402749379
42 0.7499999999993406 0.01307523184929819 0.7434855472560989
43 0.8749999999996703 -0.008241767633252871 0.7494799299492427
44 1.03062401822556 0.09590393898205782 0.7436541894025398
45 1.058734157393711 0.2209039389816956 0.7287166953825168
46 1.08202289895371 0.3459039389813308 0.7049606294065665
47 1.098578505548004 0.4709039389809768 0.6740135548344822
48 1.107041952622974 0.5959039389812956 0.6379957017040417
49 1.106718488686447 0.7209039389816253 0.5993747066229678
50 1.097634666400777 0.8459039389819549 0.5607965513197688
51 0.955536162914587 0.991758232366776 0.524535639649267
52 0.8305361629154329 1.013075231849128 0.5275618804013419
53 0.7055361629162998 1.033658166774015 0.5338468645356486
54 0.5805361629171453 1.052351478051463 0.543107852100233
55 0.4555361629166467 1.068105693104098 0.5549282229219569
56 0.3305361629161263 1.080036344946004 0.5687762189235676
57 0.2055361629156061 1.087473627583233 0.5840288661021701
58 0.09763466640079492 0.9649999999995011 0.6
59 0.1067184886864088 0.840000000000347 0.6
60 0.1070419526230463 0.715000000001214 0.6
61 0.09857850554834524 0.5900000000020594 0.6
62 0.08202289895411669 0.4650000000015608 0.6
63 0.05873415739405029 0.3400000000010405 0.6
64 0.03062401822573803 0.2150000000005202 0.6
65 0 0.0225 0.15
66 0 0.045 0.3
67 0 0.06749999999999999 0.45
68 1 -0.007274015254428825 0.1871874303919676
69 1 -0.01454803050885765 0.3743748607839352
70 1 -0.02182204576328647 0.5615622911759027
71 1.020134040728771 0.9927259847455712 0.1312260706265368
72 1.040268081457543 0.9854519694911423 0.2624521412530736
73 1.060402122186314 0.9781779542367135 0.3936782118796104
74 0.02013404072877145 1.0225 0.15
75 0.0402680814575429 1.045 0.3
76 0.06040212218631434 1.0675 0.45
77 0.1249999999998665 0.1250000000004269 0
78 0.1249999999999599 0.2500000000008368 0
79 0.1250000000000533 0.3750000000012465 0
80 0.1250000000001467 0.5000000000016386 0
81 0.1250000000002401 0.6250000000009387 0
82 0.1250000000003335 0.7500000000002212 0
83 0.1250000000004269 0.8749999999995224 0
84 0.2499999999996146 0.1250000000003335 0
85 0.2499999999998184 0.2500000000006332 0
86 0.250000000000022 0.3750000000009323 0
87 0.2500000000002257 0.5000000000012176 0
88 0.2500000000004294 0.6250000000006634 0
89 0.2500000000006332 0.7500000000000955 0
90 0.2500000000008368 0.8749999999995434 0
91 0.3749999999993605 0.1250000000002401 0
92 0.3749999999996748 0.2500000000004294 0
93 0.3749999999999891 0.3750000000006178 0
94 0.3750000000003035 0.5000000000007966 0
95 0.3750000000006179 0.6250000000003878 0
96 0.3750000000009322 0.7499999999999696 0
97 0.3750000000012465 0.8749999999995648 0
98 0.4999999999991129 0.1250000000001467 0
99 0.4999999999995339 0.2500000000002257 0
100 0.4999999999999548 0.3750000000003034 0
101 0.5000000000003758 0.5000000000003758 0
102 0.5000000000007968 0.6250000000001125 0
103 0.5000000000012176 0.7499999999998439 0
104 0.5000000000016386 0.8749999999995856 0
105 0.6249999999992862 0.1250000000000533 0
106 0.6249999999995616 0.2500000000000221 0
107 0.6249999999998369 0.3749999999999892 0
108 0.6250000000001125 0.4999999999999548 0
109 0.6250000000003878 0.6249999999998369 0
110 0.6250000000006631 0.749999999999718 0
111 0.6250000000009388 0.874999999999607 0
112 0.7499999999994666 0.1249999999999599 0
113 0.7499999999995923 0.2499999999998184 0
114 0.749999999999718 0.3749999999996748 0
115 0.7499999999998439 0.4999999999995339 0
116 0.7499999999999698 0.6249999999995616 0
117 0.7500000000000955 0.7499999999995921 0
118 0.7500000000002214 0.8749999999996279 0
119 0.8749999999996489 0.1249999999998665 0
120 0.8749999999996282 0.2499999999996146 0
121 0.874999999999607 0.3749999999993605 0
122 0.8749999999995858 0.499999999999113 0
123 0.8749999999995646 0.6249999999992863 0
124 0.8749999999995433 0.7499999999994664 0
125 0.8749999999995223 0.8749999999996491 0
126 0.1249999999997731 0.0218684068958158 0.1579089121180774
127 0.1249999999997731 0.04373681379163161 0.3158178242361547
128 0.1249999999997731 0.06560522068744741 0.4737267363542321
129 0.2499999999994109 0.0200090862365328 0.1654620293153442
130 0.2499999999994109 0.04001817247306561 0.3309240586306885
131 0.2499999999994109 0.0600272587095984 0.4963860879460326
132 0.3749999999990461 0.01702642327609487 0.1723195626682645
133 0.3749999999990461 0.03405284655218974 0.344639125336529
134 0.3749999999990461 0.0510792698282846 0.5169586880047934
135 0.4999999999986921 0.01308786951298286 0.1781730151927059
136 0.4999999999986921 0.02617573902596572 0.3563460303854118
137 0.4999999999986921 0.03926360853894857 0.5345190455781178
138 0.6249999999990109 0.008414541693591215 0.1827590600687345
139 0.6249999999990109 0.01682908338718243 0.3655181201374689
140 0.6249999999990109 0.02524362508077364 0.5482771802062033
141 0.7499999999993406 0.003268807962324548 0.1858713868140247
142 0.7499999999993406 0.006537615924649096 0.3717427736280495
143 0.7499999999993406 0.009806423886973644 0.5576141604420741
144 0.8749999999996703 -0.002060441908313218 0.1873699824873107
145 0.8749999999996703 -0.004120883816626435 0.3747399649746214
146 0.8749999999996703 -0.006181325724939652 0.562109947461932
147 1.00765600455639 0.1177259847453443 0.185913547350635
148 1.01531200911278 0.1104519694909155 0.3718270947012699
149 1.02296801366917 0.1031779542364866 0.5577406420519048
150 1.014683539348428 0.2427259847449821 0.1821791738456292
151 1.029367078696855 0.2354519694905533 0.3643583476912584
152 1.044050618045283 0.2281779542361245 0.5465375215368876
153 1.020505724738427 0.3677259847446173 0.1762401573516416
154 1.041011449476855 0.3604519694901884 0.3524803147032832
155 1.061517174215283 0.3531779542357596 0.5287204720549248
156 1.024644626387001 0.4927259847442633 0.1685033887086206
157 1.049289252774002 0.4854519694898344 0.3370067774172411
158 1.073933879161003 0.4781779542354057 0.5055101661258616
159 1.026760488155744 0.6177259847445821 0.1594989254260104
160 1.053520976311487 0.6104519694901532 0.3189978508520209
161 1.08028146446723 0.6031779542357244 0.4784967762780312
162 1.026679622171612 0.7427259847449118 0.1498436766557419
163 1.053359244343224 0.735451969490483 0.2996873533114839
164 1.080038866514835 0.7281779542360541 0.4495310299672258
165 1.024408666600194 0.8677259847452414 0.1401991378299422
166 1.048817333200389 0.8604519694908126 0.2803982756598844
167 1.073225999800583 0.8531779542363838 0.4205974134898266
168 0.8951340407282726 0.997939558091694 0.1311339099123167
169 0.9152680814570441 0.995879116183388 0.2622678198246335
170 0.9354021221858155 0.993818674275082 0.3934017297369503
171 0.7701340407291185 1.003268807962282 0.1318904701003355
172 0.79026808145789 1.006537615924564 0.2637809402006709
173 0.8104021221866614 1.009806423886846 0.3956714103010064
174 0.6451340407299855 1.008414541693504 0.1334617161339121
175 0.6652680814587569 1.016829083387008 0.2669234322678243
176 0.6854021221875284 1.025243625080512 0.4003851484017364
177 0.5201340407308309 1.013087869512866 0.1357769630250583
178 0.5402680814596024 1.026175739025732 0.2715539260501165
179 0.5604021221883738 1.039263608538597 0.4073308890751748
180 0.3951340407303323 1.017026423276025 0.1387320557304892
181 0.4152680814591038 1.034052846552049 0.2774641114609784
182 0.4354021221878752 1.051079269828074 0.4161961671914676
183 0.270134040729812 1.020009086236501 0.1421940547308919
184 0.2902680814585834 1.040018172473002 0.2843881094617838
185 0.3104021221873549 1.060027258709503 0.4265821641926756
186 0.1451340407292917 1.021868406895808 0.1460072165255425
187 0.1652680814580632 1.043736813791617 0.292014433051085
188 0.1854021221868346 1.065605220687425 0.4380216495766275
189 0.02440866660019873 0.8974999999995011 0.15
190 0.04881733320039746 0.9199999999995012 0.3
191 0.07322599980059617 0.9424999999995012 0.45
192 0.0266796221716022 0.772500000000347 0.15
193 0.0533592443432044 0.7950000000003471 0.3
194 0.08003886651480657 0.8175000000003471 0.45
195 0.02676048815576158 0.647500000001214 0.15
196 0.05352097631152317 0.6700000000012141 0.3
197 0.08028146446728475 0.692500000001214 0.45
198 0.02464462638708631 0.5225000000020594 0.15
199 0.04928925277417262 0.5450000000020595 0.3
200 0.07393387916125892 0.5675000000020595 0.45
201 0.02050572473852917 0.3975000000015609 0.15
202 0.04101144947705834 0.4200000000015608 0.3
203 0.06151717421558751 0.4425000000015609 0.45
204 0.01468353934851257 0.2725000000010405 0.15
205 0.02936707869702515 0.2950000000010405 0.3
206 0.04405061804553771 0.3175000000010405 0.45
207 0.007656004556434508 0.1475000000005202 0.15
208 0.01531200911286902 0.1700000000005202 0.3
209 0.02296801366930352 0.1925000000005203 0.45
210 0.1556240182255823 0.2124736275836863 0.6305519458430814
211 0.1837341573939677 0.3374736275840925 0.627375084031869
212 0.2070228989541191 0.4624736275844984 0.6223227145592697
213 0.2235785055484492 0.5874736275848867 0.6157409827610533
214 0.2320419526232773 0.7124736275841831 0.6080808128572217
215 0.231718488686747 0.8374736275834618 0.5998670144638381
216 0.2226346664012195 0.9624736275827593 0.5916623271070183
217 0.2806240182253082 0.2050363449464487 0.6597294640797459
218 0.3087341573937837 0.3300363449467325 0.6535186566106131
219 0.3320228989540371 0.4550363449470157 0.6436412064972664
220 0.3485785055484855 0.5800363449472851 0.6307738325158306
221 0.3570419526234576 0.705036344946715 0.6157980975670316
222 0.3567184886870515 0.8300363449461311 0.599740011492374
223 0.3476346664016272 0.9550363449455631 0.5836997376164524
224 0.4056240182250317 0.1931056931045844 0.6862199579033765
225 0.4337341573935977 0.3181056931047386 0.6772546077736826
226 0.4570228989539534 0.4431056931048918 0.6629964297356684
227 0.4735785055485205 0.5681056931050356 0.6444222727413323
228 0.482041952623637 0.6931056931045916 0.6228046798706747
229 0.4817184886873554 0.8181056931041382 0.599624704515153
230 0.4726346664020347 0.9431056931036983 0.5764704412106081
231 0.530624018224762 0.1773514780520196 0.708831710550495
232 0.5587341573934144 0.30235147805204 0.6975151382159172
233 0.5820228989538683 0.4273514780520591 0.6795176589438036
234 0.5985785055485502 0.5523514780520731 0.6560723067668809
235 0.6070419526238068 0.6773514780517511 0.6287853575812191
236 0.6067184886876456 0.802351478051424 0.5995262807989195
237 0.5976346664024246 0.9273514780511072 0.5702996592225601
238 0.655624018224913 0.1586581667743744 0.7265474965643264
239 0.6837341573933996 0.2836581667742996 0.7133887959302162
240 0.7070228989536996 0.4086581667742231 0.6924616604948438
241 0.7235785055482442 0.533658166774145 0.6651998393854718
242 0.7320419526233887 0.6586581667739834 0.6334710804524618
243 0.7317184886870959 0.7836581667738208 0.5994491680902185
244 0.7226346664017225 0.9086581667736661 0.565464994040127
245 0.7806240182250712 0.1380752318492368 0.7385703432906868
246 0.8087341573933878 0.263075231849074 0.7241614793176159
247 0.8320228989535299 0.3880752318489091 0.7012461280060759
248 0.8485785055479329 0.5130752318487469 0.6713942541056755
249 0.8570419526229616 0.6380752318487534 0.6366510538298675
250 0.8567184886865331 0.7630752318487626 0.5993968354262132
251 0.8476346664010028 0.888075231848777 0.5621839407232537
252 0.9056240182252313 0.1167582323666173 0.7443593839535894
253 0.9337341573933813 0.2417582323663689 0.7293485621772597
254 0.9570228989533681 0.3667582323661184 0.7054758783125034
255 0.973578505547632 0.4917582323658746 0.6743768853838672
256 0.9820419526225472 0.6167582323660515 0.6381822215814267
257 0.9817184886859857 0.7417582323662352 0.5993716370745626
258 0.9726346664003015 0.8667582323664214 0.5606041026448927
259 0.1326560045562955 0.1468684068962417 0.1576379864607703
260 0.1403120091127244 0.1687368137920566 0.3152759729215407
261 0.1479680136691534 0.1906052206878714 0.472913959382311
262 0.1396835393484618 0.2718684068966507 0.1568437710079673
263 0.1543670786969638 0.2937368137924646 0.3136875420159345
264 0.1690506180454658 0.3156052206882786 0.4705313130239018
265 0.1455057247385697 0.3968684068970595 0.1555806786398174
266 0.1660114494770862 0.4187368137928725 0.3111613572796348
267 0.1865171742156027 0.4406052206886855 0.4667420359194522
268 0.1496446263872223 0.5218684068974506 0.1539352456902633
269 0.174289252774298 0.5437368137932627 0.3078704913805266
270 0.1989338791613736 0.5656052206890747 0.46180573707079
271 0.1517604881559994 0.6468684068967498 0.1520202032143054
272 0.1785209763117587 0.6687368137925609 0.3040404064286109
273 0.205281464467518 0.690605220688372 0.4560606096429162
274 0.1516796221719369 0.7718684068960313 0.1499667536159595
275 0.1783592443435403 0.7937368137918415 0.299933507231919
276 0.2050388665151437 0.8156052206876516 0.4499002608478785
277 0.149408666600625 0.8968684068953316 0.1479155817767546
278 0.1738173332008232 0.9187368137911408 0.2958311635535091
279 0.1982259998010213 0.9406052206869501 0.4437467453302637
280 0.257656004556038 0.1450090862368623 0.1649323660199365
281 0.2653120091124614 0.1650181724733911 0.3298647320398729
282 0.2729680136688848 0.1850272587099199 0.4947970980598093
283 0.2646835393483097 0.270009086237158 0.1633796641526533
284 0.2793670786968011 0.2900181724736828 0.3267593283053066
285 0.2940506180452924 0.3100272587102076 0.4901389924579598
286 0.2705057247385257 0.3950090862374531 0.1609103016243166
287 0.2910114494770295 0.415018172473974 0.3218206032486332
288 0.3115171742155333 0.4350272587104948 0.4827309048729498
289 0.2746446263872906 0.5200090862377345 0.1576934581289577
290 0.2992892527743556 0.5400181724742513 0.3153869162579153
291 0.3239338791614206 0.5600272587107682 0.473080374386873
292 0.2767604881561865 0.6450090862371762 0.1539495243917579
293 0.3035209763119435 0.6650181724736891 0.3078990487835158
294 0.3302814644677006 0.685027258710202 0.4618485731752737
295 0.2766796221722377 0.7700090862366044 0.1499350028730935
296 0.3033592443438424 0.7900181724731132 0.299870005746187
297 0.3300388665154469 0.8100272587096222 0.4498050086192805
298 0.2744086666010344 0.8950090862360482 0.1459249344041131
299 0.298817333201232 0.9150181724725532 0.2918498688082262
300 0.3232259998014296 0.9350272587090581 0.4377748032123393
301 0.3826560045557783 0.1420264232763261 0.1715549894758441
302 0.3903120091121961 0.1590528465524122 0.3431099789516883
303 0.3979680136686139 0.1760792698284983 0.5146649684275324
304 0.3896835393481555 0.2670264232765067 0.1693136519434207
305 0.4043670786966363 0.284052846552584 0.3386273038868413
306 0.419050618045117 0.3010792698286613 0.507940955830262
307 0.3955057247384801 0.3920264232766863 0.1657491074339171
308 0.4160114494769712 0.4090528465527548 0.3314982148678342
309 0.4365171742154623 0.4260792698288233 0.4972473223017513
310 0.3996446263873578 0.5170264232768563 0.1611055681853331
311 0.424289252774412 0.5340528465529161 0.3222111363706662
312 0.4489338791614663 0.5510792698289758 0.4833167045559992
313 0.4017604881563727 0.6420264232764388 0.1557011699676687
314 0.4285209763121274 0.6590528465524896 0.3114023399353373
315 0.4552814644678822 0.6760792698285406 0.467103509903006
316 0.401679622172538 0.7670264232760118 0.1499061761287883
317 0.4283592443441438 0.7840528465520539 0.2998123522575765
318 0.4550388665157496 0.8010792698280961 0.4497185283863647
319 0.3994086666014435 0.8920264232755981 0.144117610302652
320 0.4238173332016406 0.9090528465516315 0.288235220605304
321 0.4482259998018376 0.9260792698276649 0.4323528309079561
322 0.5076560045555252 0.1380878695131149 0.1772079276376237
323 0.5153120091119374 0.1511757390260831 0.3544158552752475
324 0.5229680136683497 0.1642636085390514 0.5316237829128713
325 0.514683539348004 0.2630878695131793 0.1743787845539793
326 0.5293670786964741 0.2761757390261329 0.3487575691079586
327 0.5440506180449443 0.2892636085390864 0.5231363536619378
328 0.5205057247384332 0.3880878695132423 0.1698794147359509
329 0.5410114494769116 0.4011757390261813 0.3397588294719018
330 0.5615171742153899 0.4142636085391202 0.5096382442078526
331 0.5246446263874194 0.5130878695133001 0.1640180766917202
332 0.5492892527744631 0.5261757390262244 0.3280361533834404
333 0.5739338791615066 0.5392636085391488 0.4920542300751606
334 0.5267604881565493 0.6380878695130221 0.1571963393953048
335 0.5535209763123018 0.6511757390259318 0.3143926787906096
336 0.5802814644680543 0.6642636085388415 0.4715890181859143
337 0.5266796221728246 0.763087869512739 0.1498815701997299
338 0.5533592443444316 0.776175739025634 0.2997631403994597
339 0.5800388665160385 0.7892636085385291 0.4496447105991896
340 0.524408666601835 0.888087869512466 0.14257491480564
341 0.5488173332020315 0.9011757390253463 0.28514982961128
342 0.573225999802228 0.9142636085382267 0.42772474441692
343 0.6326560045556929 0.1334145416936336 0.1816368741410816
344 0.6403120091120996 0.1418290833872139 0.3632737482821632
345 0.6479680136685063 0.1502436250807941 0.5449106224232447
346 0.639683539348021 0.2584145416935915 0.1783471989825541
347 0.6543670786964806 0.2668290833871608 0.3566943979651081
348 0.66905061804494 0.2752436250807302 0.5350415969476621
349 0.6455057247383026 0.3834145416935477 0.173115415123711
350 0.6660114494767683 0.3918290833871061 0.3462308302474219
351 0.6865171742152339 0.4002436250806646 0.5193462453711328
352 0.6496446263871454 0.5084145416935023 0.1662999598463679
353 0.6742892527741783 0.5168290833870499 0.3325999196927359
354 0.6989338791612112 0.5252436250805974 0.4988998795391038
355 0.6517604881561381 0.6334145416933735 0.1583677701131155
356 0.6785209763118882 0.6418290833869101 0.3167355402262309
357 0.7052814644676384 0.6502436250804468 0.4751033103393464
358 0.6516796221722714 0.7584145416932437 0.1498622920225546
359 0.6783592443438795 0.7668290833867695 0.2997245840451093
360 0.7050388665154877 0.7752436250802951 0.4495868760676638
361 0.6494086666011347 0.8834145416931217 0.1413662485100317
362 0.6738173332013306 0.8918290833866366 0.2827324970200635
363 0.6982259998015266 0.9002436250801513 0.4240987455300952
364 0.7576560045558678 0.1282688079622791 0.1846425858226717
365 0.7653120091122689 0.1315376159245983 0.3692851716453434
366 0.7729680136686701 0.1348064238869175 0.553927757468015
367 0.7646835393480412 0.2532688079621322 0.181040369829404
368 0.7793670786964901 0.2565376159244462 0.3620807396588079
369 0.7940506180449389 0.2598064238867601 0.5431211094882119
370 0.770505724738171 0.3782688079619834 0.175311532001519
371 0.7910114494766239 0.3815376159242919 0.3506230640030379
372 0.811517174215077 0.3848064238866005 0.5259345960045569
373 0.7746446263868662 0.5032688079618372 0.1678485635264189
374 0.7992892527738884 0.5065376159241405 0.3356971270528378
375 0.8239338791609107 0.5098064238864437 0.5035456905792566
376 0.7767604881557177 0.6282688079618595 0.1591627634574669
377 0.8035209763114657 0.6315376159241575 0.3183255269149338
378 0.8302814644672136 0.6348064238864554 0.4774882903724006
379 0.7766796221717048 0.7532688079618848 0.1498492088565533
380 0.8033592443433143 0.7565376159241773 0.2996984177131066
381 0.8300388665149236 0.75980642388647 0.4495476265696599
382 0.7744086666004167 0.8782688079619152 0.1405459851808134
383 0.7988173332006121 0.8815376159242024 0.2810919703616269
384 0.8232259998008075 0.8848064238864898 0.4216379555424403
385 0.8826560045560445 0.1229395580915542 0.1860898459883973
386 0.8903120091124401 0.1208791161832419 0.3721796919767947
387 0.8979680136688357 0.1188186742749296 0.558269537965192
388 0.8896835393480664 0.2479395580913032 0.1823371405443149
389 0.9043670786965047 0.2458791161829918 0.3646742810886299
390 0.9190506180449429 0.2438186742746804 0.5470114216329448
391 0.8955057247380472 0.3729395580910499 0.1763689695781258
392 0.9160114494764875 0.3708791161827394 0.3527379391562517
393 0.9365171742149279 0.3688186742744289 0.5291069087343775
394 0.8996446263865974 0.4979395580908034 0.1685942213459668
395 0.924289252773609 0.4958791161824938 0.3371884426919336
396 0.9489338791606204 0.4938186742741842 0.5057826640379004
397 0.9017604881553103 0.6229395580909777 0.1595455553953567
398 0.9285209763110559 0.6208791161826689 0.3190911107907133
399 0.9552814644668016 0.6188186742743602 0.47863666618607
400 0.9016796221711538 0.7479395580911586 0.1498429092686407
401 0.9283592443427644 0.7458791161828509 0.2996858185372813
402 0.955038866514375 0.743818674274543 0.449528727805922
403 0.8994086665997171 0.8729395580913422 0.1401510256612232
404 0.9238173331999119 0.8708791161830353 0.2803020513224463
405 0.9482259998001067 0.8688186742747284 0.4204530769836695
$EndNodes
$Elements
896
1 2 2 1 1 1 9 36
2 2 2 1 1 36 9 77
3 2 2 1 1 36 77 78
4 2 2 1 1 78 35 36
5 2 2 1 1 35 78 34
6 2 2 1 1 34 78 79
7 2 2 1 1 34 79 80
8 2 2 1 1 80 33 34
9 2 2 1 1 33 80 32
10 2 2 1 1 32 80 81
11 2 2 1 1 32 81 82
12 2 2 1 1 82 31 32
13 2 2 1 1 31 82 30
14 2 2 1 1 30 82 83
15 2 2 1 1 30 83 29
16 2 2 1 1 29 4 30
17 2 2 1 1 9 10 84
18 2 2 1 1 84 77 9
19 2 2 1 1 77 84 78
20 2 2 1 1 78 84 85
21 2 2 1 1 78 85 86
22 2 2 1 1 86 79 78
23 2 2 1 1 79 86 80
24 2 2 1 1 80 86 87
25 2 2 1 1 80 87 88
26 2 2 1 1 88 81 80
27 2 2 1 1 81 88 82
28 2 2 1 1 82 88 89
29 2 2 1 1 82 89 90
30 2 2 1 1 90 83 82
31 2 2 1 1 83 90 29
32 2 2 1 1 29 90 28
33 2 2 1 1 10 11 84
34 2 2 1 1 84 11 91
35 2 2 1 1 84 91 92
36 2 2 1 1 92 85 84
37 2 2 1 1 85 92 86
38 2 2 1 1 86 92 93
39 2 2 1 1 86 93 94
40 2 2 1 1 94 87 86
41 2 2 1 1 87 94 88
42 2 2 1 1 88 94 95
43 2 2 1 1 88 95 96
44 2 2 1 1 96 89 88
45 2 2 1 1 89 96 90
46 2 2 1 1 90 96 97
47 2 2 1 1 90 97 27
48 2 2 1 1 27 28 90
49 2 2 1 1 11 12 98
50 2 2 1 1 98 91 11
51 2 2 1 1 91 98 92
52 2 2 1 1 92 98 99
53 2 2 1 1 92 99 100
54 2 2 1 1 100 93 92
55 2 2 1 1 93 100 94
56 2 2 1 1 94 100 101
57 2 2 1 1 94 101 102
58 2 2 1 1 102 95 94
59 2 2 1 1 95 102 96
60 2 2 1 1 96 102 103
61 2 2 1 1 96 103 104
62 2 2 1 1 104 97 96
63 2 2 1 1 97 104 27
64 2 2 1 1 27 104 26
65 2 2 1 1 12 13 98
66 2 2 1 1 98 13 105
67 2 2 1 1 98 105 106
68 2 2 1 1 106 99 98
69 2 2 1 1 99 106 100
70 2 2 1 1 100 106 107
71 2 2 1 1 100 107 108
72 2 2 1 1 108 101 100
73 2 2 1 1 101 108 102
74 2 2 1 1 102 108 109
75 2 2 1 1 102 109 110
76 2 2 1 1 110 103 102
77 2 2 1 1 103 110 104
78 2 2 1 1 104 110 111
79 2 2 1 1 104 111 25
80 2 2 1 1 25 26 104
81 2 2 1 1 13 14 112
82 2 2 1 1 112 105 13
83 2 2 1 1 105 112 106
84 2 2 1 1 106 112 113
85 2 2 1 1 106 113 114
86 2 2 1 1 114 107 106
87 2 2 1 1 107 114 108
88 2 2 1 1 108 114 115
89 2 2 1 1 108 115 116
90 2 2 1 1 116 109 108
91 2 2 1 1 109 116 110
92 2 2 1 1 110 116 117
93 2 2 1 1 110 117 118
94 2 2 1 1 118 111 110
95 2 2 1 1 111 118 25
96 2 2 1 1 25 118 24
97 2 2 1 1 14 15 112
98 2 2 1 1 112 15 119
99 2 2 1 1 112 119 120
100 2 2 1 1 120 113 112
101 2 2 1 1 113 120 114
102 2 2 1 1 114 120 121
103 2 2 1 1 114 121 122
104 2 2 1 1 122 115 114
105 2 2 1 1 115 122 116
106 2 2 1 1 116 122 123
107 2 2 1 1 116 123 124
108 2 2 1 1 124 117 116
109 2 2 1 1 117 124 118
110 2 2 1 1 118 124 125
111 2 2 1 1 118 125 23
112 2 2 1 1 23 24 118
113 2 2 1 1 15 2 16
114 2 2 1 1 16 119 15
115 2 2 1 1 119 16 120
116 2 2 1 1 120 16 17
117 2 2 1 1 120 17 18
118 2 2 1 1 18 121 120
119 2 2 1 1 121 18 122
120 2 2 1 1 122 18 19
121 2 2 1 1 122 19 20
122 2 2 1 1 20 123 122
123 2 2 1 1 123 20 124
124 2 2 1 1 124 20 21
125 2 2 1 1 124 21 22
126 2 2 1 1 22 125 124
127 2 2 1 1 125 22 23
128 2 2 1 1 23 22 3
129 2 2 2 26 5 37 64
130 2 2 2 26 64 37 210
131 2 2 2 26 64 210 211
132 2 2 2 26 211 63 64
133 2 2 2 26 63 211 62
134 2 2 2 26 62 211 212
135 2 2 2 26 62 212 213
136 2 2 2 26 213 61 62
137 2 2 2 26 61 213 60
138 2 2 2 26 60 213 214
139 2 2 2 26 60 214 215
140 2 2 2 26 215 59 60
141 2 2 2 26 59 215 58
142 2 2 2 26 58 215 216
143 2 2 2 26 58 216 57
144 2 2 2 26 57 8 58
145 2 2 2 26 37 38 217
146 2 2 2 26 217 210 37
147 2 2 2 26 210 217 211
148 2 2 2 26 211 217 218
149 2 2 2 26 211 218 219
150 2 2 2 26 219 212 211
151 2 2 2 26 212 219 213
152 2 2 2 26 213 219 220
153 2 2 2 26 213 220 221
154 2 2 2 26 221 214 213
155 2 2 2 26 214 221 215
156 2 2 2 26 215 221 222
157 2 2 2 26 215 222 223
158 2 2 2 26 223 216 215
159 2 2 2 26 216 223 57
160 2 2 2 26 57 223 56
161 2 2 2 26 38 39 217
162 2 2 2 26 217 39 224
163 2 2 2 26 217 224 225
164 2 2 2 26 225 218 217
165 2 2 2 26 218 225 219
166 2 2 2 26 219 225 226
167 2 2 2 26 219 226 227
168 2 2 2 26 227 220 219
169 2 2 2 26 220 227 221
170 2 2 2 26 221 227 228
171 2 2 2 26 221 228 229
172 2 2 2 26 229 222 221
173 2 2 2 26 222 229 223
174 2 2 2 26 223 229 230
175 2 2 2 26 223 230 55
176 2 2 2 26 55 56 223
177 2 2 2 26 39 40 231
178 2 2 2 26 231 224 39
179 2 2 2 26 224 231 225
180 2 2 2 26 225 231 232
181 2 2 2 26 225 232 233
182 2 2 2 26 233 226 225
183 2 2 2 26 226 233 227
184 2 2 2 26 227 233 234
185 2 2 2 26 227 234 235
186 2 2 2 26 235 228 227
187 2 2 2 26 228 235 229
188 2 2 2 26 229 235 236
189 2 2 2 26 229 236 237
190 2 2 2 26 237 230 229
191 2 2 2 26 230 237 55
192 2 2 2 26 55 237 54
193 2 2 2 26 40 41 231
194 2 2 2 26 231 41 238
195 2 2 2 26 231 238 239
196 2 2 2 26 239 232 231
197 2 2 2 26 232 239 233
198 2 2 2 26 233 239 240
199 2 2 2 26 233 240 241
200 2 2 2 26 241 234 233
201 2 2 2 26 234 241 235
202 2 2 2 26 235 241 242
203 2 2 2 26 235 242 243
204 2 2 2 26 243 236 235
205 2 2 2 26 236 243 237
206 2 2 2 26 237 243 244
207 2 2 2 26 237 244 53
208 2 2 2 26 53 54 237
209 2 2 2 26 41 42 245
210 2 2 2 26 245 238 41
211 2 2 2 26 238 245 239
212 2 2 2 26 239 245 246
213 2 2 2 26 239 246 247
214 2 2 2 26 247 240 239
215 2 2 2 26 240 247 241
216 2 2 2 26 241 247 248
217 2 2 2 26 241 248 249
218 2 2 2 26 249 242 241
219 2 2 2 26 242 249 243
220 2 2 2 26 243 249 250
221 2 2 2 26 243 250 251
222 2 2 2 26 251 244 243
223 2 2 2 26 244 251 53
224 2 2 2 26 53 251 52
225 2 2 2 26 42 43 245
226 2 2 2 26 245 43 252
227 2 2 2 26 245 252 253
228 2 2 2 26 253 246 245
229 2 2 2 26 246 253 247
230 2 2 2 26 247 253 254
231 2 2 2 26 247 254 255
232 2 2 2 26 255 248 247
233 2 2 2 26 248 255 249
234 2 2 2 26 249 255 256
235 2 2 2 26 249 256 257
236 2 2 2 26 257 250 249
237 2 2 2 26 250 257 251
238 2 2 2 26 251 257 258
239 2 2 2 26 251 258 51
240 2 2 2 26 51 52 251
241 2 2 2 26 43 6 44
242 2 2 2 26 44 252 43
243 2 2 2 26 252 44 253
244 2 2 2 26 253 44 45
245 2 2 2 26 253 45 46
246 2 2 2 26 46 254 253
247 2 2 2 26 254 46 255
248 2 2 2 26 255 46 47
249 2 2 2 26 255 47 48
250 2 2 2 26 48 256 255
251 2 2 2 26 256 48 257
252 2 2 2 26 257 48 49
253 2 2 2 26 257 49 50
254 2 2 2 26 50 258 257
255 2 2 2 26 258 50 51
256 2 2 2 26 51 50 7
257 3 2 3 13 1 9 126 65
258 3 2 3 13 65 126 127 66
259 3 2 3 13 66 127 128 67
260 3 2 3 13 67 128 37 5
261 3 2 3 13 9 10 129 126
262 3 2 3 13 126 129 130 127
263 3 2 3 13 127 130 131 128
264 3 2 3 13 128 131 38 37
265 3 2 3 13 10 11 132 129
266 3 2 3 13 129 132 133 130
267 3 2 3 13 130 133 134 131
268 3 2 3 13 131 134 39 38
269 3 2 3 13 11 12 135 132
270 3 2 3 13 132 135 136 133
271 3 2 3 13 133 136 137 134
272 3 2 3 13 134 137 40 39
273 3 2 3 13 12 13 138 135
274 3 2 3 13 135 138 139 136
275 3 2 3 13 136 139 140 137
276 3 2 3 13 137 140 41 40
277 3 2 3 13 13 14 141 138
278 3 2 3 13 138 141 142 139
279 3 2 3 13 139 142 143 140
280 3 2 3 13 140 143 42 41
281 3 2 3 13 14 15 144 141
282 3 2 3 13 141 144 145 142
283 3 2 3 13 142 145 146 143
284 3 2 3 13 143 146 43 42
285 3 2 3 13 15 2 68 144
286 3 2 3 13 144 68 69 145
287 3 2 3 13 145 69 70 146
288 3 2 3 13 146 70 6 43
289 3 2 3 17 2 16 147 68
290 3 2 3 17 68 147 148 69
291 3 2 3 17 69 148 149 70
292 3 2 3 17 70 149 44 6
293 3 2 3 17 16 17 150 147
294 3 2 3 17 147 150 151 148
295 3 2 3 17 148 151 152 149
296 3 2 3 17 149 152 45 44
297 3 2 3 17 17 18 153 150
298 3 2 3 17 150 153 154 151
299 3 2 3 17 151 154 155 152
300 3 2 3 17 152 155 46 45
301 3 2 3 17 18 19 156 153
302 3 2 3 17 153 156 157 154
303 3 2 3 17 154 157 158 155
304 3 2 3 17 155 158 47 46
305 3 2 3 17 19 20 159 156
306 3 2 3 17 156 159 160 157
307 3 2 3 17 157 160 161 158
308 3 2 3 17 158 161 48 47
309 3 2 3 17 20 21 162 159
310 3 2 3 17 159 162 163 160
311 3 2 3 17 160 163 164 161
312 3 2 3 17 161 164 49 48
313 3 2 3 17 21 22 165 162
314 3 2 3 17 162 165 166 163
315 3 2 3 17 163 166 167 164
316 3 2 3 17 164 167 50 49
317 3 2 3 17 22 3 71 165
318 3 2 3 17 165 71 72 166
319 3 2 3 17 166 72 73 167
320 3 2 3 17 167 73 7 50
321 3 2 3 21 3 23 168 71
322 3 2 3 21 71 168 169 72
323 3 2 3 21 72 169 170 73
324 3 2 3 21 73 170 51 7
325 3 2 3 21 23 24 171 168
326 3 2 3 21 168 171 172 169
327 3 2 3 21 169 172 173 170
328 3 2 3 21 170 173 52 51
329 3 2 3 21 24 25 174 171
330 3 2 3 21 171 174 175 172
331 3 2 3 21 172 175 176 173
332 3 2 3 21 173 176 53 52
333 3 2 3 21 25 26 177 174
334 3 2 3 21 174 177 178 175
335 3 2 3 21 175 178 179 176
336 3 2 3 21 176 179 54 53
337 3 2 3 21 26 27 180 177
338 3 2 3 21 177 180 181 178
339 3 2 3 21 178 181 182 179
340 3 2 3 21 179 182 55 54
341 3 2 3 21 27 28 183 180
342 3 2 3 21 180 183 184 181
343 3 2 3 21 181 184 185 182
344 3 2 3 21 182 185 56 55
345 3 2 3 21 28 29 186 183
346 3 2 3 21 183 186 187 184
347 3 2 3 21 184 187 188 185
348 3 2 3 21 185 188 57 56
349 3 2 3 21 29 4 74 186
350 3 2 3 21 186 74 75 187
351 3 2 3 21 187 75 76 188
352 3 2 3 21 188 76 8 57
353 3 2 3 25 4 30 189 74
354 3 2 3 25 74 189 190 75
355 3 2 3 25 75 190 191 76
356 3 2 3 25 76 191 58 8
357 3 2 3 25 30 31 192 189
358 3 2 3 25 189 192 193 190
359 3 2 3 25 190 193 194 191
360 3 2 3 25 191 194 59 58
361 3 2 3 25 31 32 195 192
362 3 2 3 25 192 195 196 193
363 3 2 3 25 193 196 197 194
364 3 2 3 25 194 197 60 59
365 3 2 3 25 32 33 198 195
366 3 2 3 25 195 198 199 196
367 3 2 3 25 196 199 200 197
368 3 2 3 25 197 200 61 60
369 3 2 3 25 33 34 201 198
370 3 2 3 25 198 201 202 199
371 3 2 3 25 199 202 203 200
372 3 2 3 25 200 203 62 61
373 3 2 3 25 34 35 204 201
374 3 2 3 25 201 204 205 202
375 3 2 3 25 202 205 206 203
376 3 2 3 25 203 206 63 62
377 3 2 3 25 35 36 207 204
378 3 2 3 25 204 207 208 205
379 3 2 3 25 205 208 209 206
380 3 2 3 25 206 209 64 63
381 3 2 3 25 36 1 65 207
382 3 2 3 25 207 65 66 208
383 3 2 3 25 208 66 67 209
384 3 2 3 25 209 67 5 64
385 6 2 1 1 1 9 36 65 126 207
386 6 2 1 1 65 126 207 66 127 208
387 6 2 1 1 66 127 208 67 128 209
388 6 2 1 1 67 128 209 5 37 64
389 6 2 1 1 36 9 77 207 126 259
390 6 2 1 1 207 126 259 208 127 260
391 6 2 1 1 208 127 260 209 128 261
392 6 2 1 1 209 128 261 64 37 210
393 6 2 1 1 36 77 78 207 259 262
394 6 2 1 1 207 259 262 208 260 263
395 6 2 1 1 208 260 263 209 261 264
396 6 2 1 1 209 261 264 64 210 211
397 6 2 1 1 78 35 36 262 204 207
398 6 2 1 1 262 204 207 263 205 208
399 6 2 1 1 263 205 208 264 206 209
400 6 2 1 1 264 206 209 211 63 64
401 6 2 1 1 35 78 34 204 262 201
402 6 2 1 1 204 262 201 205 263 202
403 6 2 1 1 205 263 202 206 264 203
404 6 2 1 1 206 264 203 63 211 62
405 6 2 1 1 34 78 79 201 262 265
406 6 2 1 1 201 262 265 202 263 266
407 6 2 1 1 202 263 266 203 264 267
408 6 2 1 1 203 264 267 62 211 212
409 6 2 1 1 34 79 80 201 265 268
410 6 2 1 1 201 265 268 202 266 269
411 6 2 1 1 202 266 269 203 267 270
412 6 2 1 1 203 267 270 62 212 213
413 6 2 1 1 80 33 34 268 198 201
414 6 2 1 1 268 198 201 269 199 202
415 6 2 1 1 269 199 202 270 200 203
416 6 2 1 1 270 200 203 213 61 62
417 6 2 1 1 33 80 32 198 268 195
418 6 2 1 1 198 268 195 199 269 196
419 6 2 1 1 199 269 196 200 270 197
420 6 2 1 1 200 270 197 61 213 60
421 6 2 1 1 32 80 81 195 268 271
422 6 2 1 1 195 268 271 196 269 272
423 6 2 1 1 196 269 272 197 270 273
424 6 2 1 1 197 270 273 60 213 214
425 6 2 1 1 32 81 82 195 271 274
426 6 2 1 1 195 271 274 196 272 275
427 6 2 1 1 196 272 275 197 273 276
428 6 2 1 1 197 273 276 60 214 215
429 6 2 1 1 82 31 32 274 192 195
430 6 2 1 1 274 192 195 275 193 196
431 6 2 1 1 275 193 196 276 194 197
432 6 2 1 1 276 194 197 215 59 60
433 6 2 1 1 31 82 30 192 274 189
434 6 2 1 1 192 274 189 193 275 190
435 6 2 1 1 193 275 190 194 276 191
436 6 2 1 1 194 276 191 59 215 58
437 6 2 1 1 30 82 83 189 274 277
438 6 2 1 1 189 274 277 190 275 278
439 6 2 1 1 190 275 278 191 276 279
440 6 2 1 1 191 276 279 58 215 216
441 6 2 1 1 30 83 29 189 277 186
442 6 2 1 1 189 277 186 190 278 187
443 6 2 1 1 190 278 187 191 279 188
444 6 2 1 1 191 279 188 58 216 57
445 6 2 1 1 29 4 30 186 74 189
446 6 2 1 1 186 74 189 187 75 190
447 6 2 1 1 187 75 190 188 76 191
448 6 2 1 1 188 76 191 57 8 58
449 6 2 1 1 9 10 84 126 129 280
450 6 2 1 1 126 129 280 127 130 281
451 6 2 1 1 127 130 281 128 131 282
452 6 2 1 1 128 131 282 37 38 217
453 6 2 1 1 84 77 9 280 259 126
454 6 2 1 1 280 259 126 281 260 127
455 6 2 1 1 281 260 127 282 261 128
456 6 2 1 1 282 261 128 217 210 37
457 6 2 1 1 77 84 78 259 280 262
458 6 2 1 1 259 280 262 260 281 263
459 6 2 1 1 260 281 263 261 282 264
460 6 2 1 1 261 282 264 210 217 211
461 6 2 1 1 78 84 85 262 280 283
462 6 2 1 1 262 280 283 263 281 284
463 6 2 1 1 263 281 284 264 282 285
464 6 2 1 1 264 282 285 211 217 218
465 6 2 1 1 78 85 86 262 283 286
466 6 2 1 1 262 283 286 263 284 287
467 6 2 1 1 263 284 287 264 285 288
468 6 2 1 1 264 285 288 211 218 219
469 6 2 1 1 86 79 78 286 265 262
470 6 2 1 1 286 265 262 287 266 263
471 6 2 1 1 287 266 263 288 267 264
472 6 2 1 1 288 267 264 219 212 211
473 6 2 1 1 79 86 80 265 286 268
474 6 2 1 1 265 286 268 266 287 269
475 6 2 1 1 266 287 269 267 288 270
476 6 2 1 1 267 288 270 212 219 213
477 6 2 1 1 80 86 87 268 286 289
478 6 2 1 1 268 286 289 269 287 290
479 6 2 1 1 269 287 290 270 288 291
480 6 2 1 1 270 288 291 213 219 220
481 6 2 1 1 80 87 88 268 289 292
482 6 2 1 1 268 289 292 269 290 293
483 6 2 1 1 269 290 293 270 291 294
484 6 2 1 1 270 291 294 213 220 221
485 6 2 1 1 88 81 80 292 271 268
486 6 2 1 1 292 271 268 293 272 269
487 6 2 1 1 293 272 269 294 273 270
488 6 2 1 1 294 273 270 221 214 213
489 6 2 1 1 81 88 82 271 292 274
490 6 2 1 1 271 292 274 272 293 275
491 6 2 1 1 272 293 275 273 294 276
492 6 2 1 1 273 294 276 214 221 215
493 6 2 1 1 82 88 89 274 292 295
494 6 2 1 1 274 292 295 275 293 296
495 6 2 1 1 275 293 296 276 294 297
496 6 2 1 1 276 294 297 215 221 222
497 6 2 1 1 82 89 90 274 295 298
498 6 2 1 1 274 295 298 275 296 299
499 6 2 1 1 275 296 299 276 297 300
500 6 2 1 1 276 297 300 215 222 223
501 6 2 1 1 90 83 82 298 277 274
502 6 2 1 1 298 277 274 299 278 275
503 6 2 1 1 299 278 275 300 279 276
504 6 2 1 1 300 279 276 223 216 215
505 6 2 1 1 83 90 29 277 298 186
506 6 2 1 1 277 298 186 278 299 187
507 6 2 1 1 278 299 187 279 300 188
508 6 2 1 1 279 300 188 216 223 57
509 6 2 1 1 29 90 28 186 298 183
510 6 2 1 1 186 298 183 187 299 184
511 6 2 1 1 187 299 184 188 300 185
512 6 2 1 1 188 300 185 57 223 56
513 6 2 1 1 10 11 84 129 132 280
514 6 2 1 1 129 132 280 130 133 281
515 6 2 1 1 130 133 281 131 134 282
516 6 2 1 1 131 134 282 38 39 217
517 6 2 1 1 84 11 91 280 132 301
518 6 2 1 1 280 132 301 281 133 302
519 6 2 1 1 281 133 302 282 134 303
520 6 2 1 1 282 134 303 217 39 224
521 6 2 1 1 84 91 92 280 301 304
522 6 2 1 1 280 301 304 281 302 305
523 6 2 1 1 281 302 305 282 303 306
524 6 2 1 1 282 303 306 217 224 225
525 6 2 1 1 92 85 84 304 283 280
526 6 2 1 1 304 283 280 305 284 281
527 6 2 1 1 305 284 281 306 285 282
528 6 2 1 1 306 285 282 225 218 217
529 6 2 1 1 85 92 86 283 304 286
530 6 2 1 1 283 304 286 284 305 287
531 6 2 1 1 284 305 287 285 306 288
532 6 2 1 1 285 306 288 218 225 219
533 6 2 1 1 86 92 93 286 304 307
534 6 2 1 1 286 304 307 287 305 308
535 6 2 1 1 287 305 308 288 306 309
536 6 2 1 1 288 306 309 219 225 226
537 6 2 1 1 86 93 94 286 307 310
538 6 2 1 1 286 307 310 287 308 311
539 6 2 1 1 287 308 311 288 309 312
540 6 2 1 1 288 309 312 219 226 227
541 6 2 1 1 94 87 86 310 289 286
542 6 2 1 1 310 289 286 311 290 287
543 6 2 1 1 311 290 287 312 291 288
544 6 2 1 1 312 291 288 227 220 219
545 6 2 1 1 87 94 88 289 310 292
546 6 2 1 1 289 310 292 290 311 293
547 6 2 1 1 290 311 293 291 312 294
548 6 2 1 1 291 312 294 220 227 221
549 6 2 1 1 88 94 95 292 310 313
550 6 2 1 1 292 310 313 293 311 314
551 6 2 1 1 293 311 314 294 312 315
552 6 2 1 1 294 312 315 221 227 228
553 6 2 1 1 88 95 96 292 313 316
554 6 2 1 1 292 313 316 293 314 317
555 6 2 1 1 293 314 317 294 315 318
556 6 2 1 1 294 315 318 221 228 229
557 6 2 1 1 96 89 88 316 295 292
558 6 2 1 1 316 295 292 317 296 293
559 6 2 1 1 317 296 293 318 297 294
560 6 2 1 1 318 297 294 229 222 221
561 6 2 1 1 89 96 90 295 316 298
562 6 2 1 1 295 316 298 296 317 299
563 6 2 1 1 296 317 299 297 318 300
564 6 2 1 1 297 318 300 222 229 223
565 6 2 1 1 90 96 97 298 316 319
566 6 2 1 1 298 316 319 299 317 320
567 6 2 1 1 299 317 320 300 318 321
568 6 2 1 1 300 318 321 223 229 230
569 6 2 1 1 90 97 27 298 319 180
570 6 2 1 1 298 319 180 299 320 181
571 6 2 1 1 299 320 181 300 321 182
572 6 2 1 1 300 321 182 223 230 55
573 6 2 1 1 27 28 90 180 183 298
574 6 2 1 1 180 183 298 181 184 299
575 6 2 1 1 181 184 299 182 185 300
576 6 2 1 1 182 185 300 55 56 223
577 6 2 1 1 11 12 98 132 135 322
578 6 2 1 1 132 135 322 133 136 323
579 6 2 1 1 133 136 323 134 137 324
580 6 2 1 1 134 137 324 39 40 231
581 6 2 1 1 98 91 11 322 301 132
582 6 2 1 1 322 301 132 323 302 133
583 6 2 1 1 323 302 133 324 303 134
584 6 2 1 1 324 303 134 231 224 39
585 6 2 1 1 91 98 92 301 322 304
586 6 2 1 1 301 322 304 302 323 305
587 6 2 1 1 302 323 305 303 324 306
588 6 2 1 1 303 324 306 224 231 225
589 6 2 1 1 92 98 99 304 322 325
590 6 2 1 1 304 322 325 305 323 326
591 6 2 1 1 305 323 326 306 324 327
592 6 2 1 1 306 324 327 225 231 232
593 6 2 1 1 92 99 100 304 325 328
594 6 2 1 1 304 325 328 305 326 329
595 6 2 1 1 305 326 329 306 327 330
596 6 2 1 1 306 327 330 225 232 233
597 6 2 1 1 100 93 92 328 307 304
598 6 2 1 1 328 307 304 329 308 305
599 6 2 1 1 329 308 305 330 309 306
600 6 2 1 1 330 309 306 233 226 225
601 6 2 1 1 93 100 94 307 328 310
602 6 2 1 1 307 328 310 308 329 311
603 6 2 1 1 308 329 311 309 330 312
604 6 2 1 1 309 330 312 226 233 227
605 6 2 1 1 94 100 101 310 328 331
606 6 2 1 1 310 328 331 311 329 332
607 6 2 1 1 311 329 332 312 330 333
608 6 2 1 1 312 330 333 227 233 234
609 6 2 1 1 94 101 102 310 331 334
610 6 2 1 1 310 331 334 311 332 335
611 6 2 1 1 311 332 335 312 333 336
612 6 2 1 1 312 333 336 227 234 235
613 6 2 1 1 102 95 94 334 313 310
614 6 2 1 1 334 313 310 335 314 311
615 6 2 1 1 335 314 311 336 315 312
616 6 2 1 1 336 315 312 235 228 227
617 6 2 1 1 95 102 96 313 334 316
618 6 2 1 1 313 334 316 314 335 317
619 6 2 1 1 314 335 317 315 336 318
620 6 2 1 1 315 336 318 228 235 229
621 6 2 1 1 96 102 103 316 334 337
622 6 2 1 1 316 334 337 317 335 338
623 6 2 1 1 317 335 338 318 336 339
624 6 2 1 1 318 336 339 229 235 236
625 6 2 1 1 96 103 104 316 337 340
626 6 2 1 1 316 337 340 317 338 341
627 6 2 1 1 317 338 341 318 339 342
628 6 2 1 1 318 339 342 229 236 237
629 6 2 1 1 104 97 96 340 319 316
630 6 2 1 1 340 319 316 341 320 317
631 6 2 1 1 341 320 317 342 321 318
632 6 2 1 1 342 321 318 237 230 229
633 6 2 1 1 97 104 27 319 340 180
634 6 2 1 1 319 340 180 320 341 181
635 6 2 1 1 320 341 181 321 342 182
636 6 2 1 1 321 342 182 230 237 55
637 6 2 1 1 27 104 26 180 340 177
638 6 2 1 1 180 340 177 181 341 178
639 6 2 1 1 181 341 178 182 342 179
640 6 2 1 1 182 342 179 55 237 54
641 6 2 1 1 12 13 98 135 138 322
642 6 2 1 1 135 138 322 136 139 323
643 6 2 1 1 136 139 323 137 140 324
644 6 2 1 1 137 140 324 40 41 231
645 6 2 1 1 98 13 105 322 138 343
646 6 2 1 1 322 138 343 323 139 344
647 6 2 1 1 323 139 344 324 140 345
648 6 2 1 1 324 140 345 231 41 238
649 6 2 1 1 98 105 106 322 343 346
650 6 2 1 1 322 343 346 323 344 347
651 6 2 1 1 323 344 347 324 345 348
652 6 2 1 1 324 345 348 231 238 239
653 6 2 1 1 106 99 98 346 325 322
654 6 2 1 1 346 325 322 347 326 323
655 6 2 1 1 347 326 323 348 327 324
656 6 2 1 1 348 327 324 239 232 231
657 6 2 1 1 99 106 100 325 346 328
658 6 2 1 1 325 346 328 326 347 329
659 6 2 1 1 326 347 329 327 348 330
660 6 2 1 1 327 348 330 232 239 233
661 6 2 1 1 100 106 107 328 346 349
662 6 2 1 1 328 346 349 329 347 350
663 6 2 1 1 329 347 350 330 348 351
664 6 2 1 1 330 348 351 233 239 240
665 6 2 1 1 100 107 108 328 349 352
666 6 2 1 1 328 349 352 329 350 353
667 6 2 1 1 329 350 353 330 351 354
668 6 2 1 1 330 351 354 233 240 241
669 6 2 1 1 108 101 100 352 331 328
670 6 2 1 1 352 331 328 353 332 329
671 6 2 1 1 353 332 329 354 333 330
672 6 2 1 1 354 333 330 241 234 233
673 6 2 1 1 101 108 102 331 352 334
674 6 2 1 1 331 352 334 332 353 335
675 6 2 1 1 332 353 335 333 354 336
676 6 2 1 1 333 354 336 234 241 235
677 6 2 1 1 102 108 109 334 352 355
678 6 2 1 1 334 352 355 335 353 356
679 6 2 1 1 335 353 356 336 354 357
680 6 2 1 1 336 354 357 235 241 242
681 6 2 1 1 102 109 110 334 355 358
682 6 2 1 1 334 355 358 335 356 359
683 6 2 1 1 335 356 359 336 357 360
684 6 2 1 1 336 357 360 235 242 243
685 6 2 1 1 110 103 102 358 337 334
686 6 2 1 1 358 337 334 359 338 335
687 6 2 1 1 359 338 335 360 339 336
688 6 2 1 1 360 339 336 243 236 235
689 6 2 1 1 103 110 104 337 358 340
690 6 2 1 1 337 358 340 338 359 341
691 6 2 1 1 338 359 341 339 360 342
692 6 2 1 1 339 360 342 236 243 237
693 6 2 1 1 104 110 111 340 358 361
694 6 2 1 1 340 358 361 341 359 362
695 6 2 1 1 341 359 362 342 360 363
696 6 2 1 1 342 360 363 237 243 244
697 6 2 1 1 104 111 25 340 361 174
698 6 2 1 1 340 361 174 341 362 175
699 6 2 1 1 341 362 175 342 363 176
700 6 2 1 1 342 363 176 237 244 53
701 6 2 1 1 25 26 104 174 177 340
702 6 2 1 1 174 177 340 175 178 341
703 6 2 1 1 175 178 341 176 179 342
704 6 2 1 1 176 179 342 53 54 237
705 6 2 1 1 13 14 112 138 141 364
706 6 2 1 1 138 141 364 139 142 365
707 6 2 1 1 139 142 365 140 143 366
708 6 2 1 1 140 143 366 41 42 245
709 6 2 1 1 112 105 13 364 343 138
710 6 2 1 1 364 343 138 365 344 139
711 6 2 1 1 365 344 139 366 345 140
712 6 2 1 1 366 345 140 245 238 41
713 6 2 1 1 105 112 106 343 364 346
714 6 2 1 1 343 364 346 344 365 347
715 6 2 1 1 344 365 347 345 366 348
716 6 2 1 1 345 366 348 238 245 239
717 6 2 1 1 106 112 113 346 364 367
718 6 2 1 1 346 364 367 347 365 368
719 6 2 1 1 347 365 368 348 366 369
720 6 2 1 1 348 366 369 239 245 246
721 6 2 1 1 106 113 114 346 367 370
722 6 2 1 1 346 367 370 347 368 371
723 6 2 1 1 347 368 371 348 369 372
724 6 2 1 1 348 369 372 239 246 247
725 6 2 1 1 114 107 106 370 349 346
726 6 2 1 1 370 349 346 371 350 347
727 6 2 1 1 371 350 347 372 351 348
728 6 2 1 1 372 351 348 247 240 239
729 6 2 1 1 107 114 108 349 370 352
730 6 2 1 1 349 370 352 350 371 353
731 6 2 1 1 350 371 353 351 372 354
732 6 2 1 1 351 372 354 240 247 241
733 6 2 1 1 108 114 115 352 370 373
734 6 2 1 1 352 370 373 353 371 374
735 6 2 1 1 353 371 374 354 372 375
736 6 2 1 1 354 372 375 241 247 248
737 6 2 1 1 108 115 116 352 373 376
738 6 2 1 1 352 373 376 353 374 377
739 6 2 1 1 353 374 377 354 375 378
740 6 2 1 1 354 375 378 241 248 249
741 6 2 1 1 116 109 108 376 355 352
742 6 2 1 1 376 355 352 377 356 353
743 6 2 1 1 377 356 353 378 357 354
744 6 2 1 1 378 357 354 249 242 241
745 6 2 1 1 109 116 110 355 376 358
746 6 2 1 1 355 376 358 356 377 359
747 6 2 1 1 356 377 359 357 378 360
748 6 2 1 1 357 378 360 242 249 243
749 6 2 1 1 110 116 117 358 376 379
750 6 2 1 1 358 376 379 359 377 380
751 6 2 1 1 359 377 380 360 378 381
752 6 2 1 1 360 378 381 243 249 250
753 6 2 1 1 110 117 118 358 379 382
754 6 2 1 1 358 379 382 359 380 383
755 6 2 1 1 359 380 383 360 381 384
756 6 2 1 1 360 381 384 243 250 251
757 6 2 1 1 118 111 110 382 361 358
758 6 2 1 1 382 361 358 383 362 359
759 6 2 1 1 383 362 359 384 363 360
760 6 2 1 1 384 363 360 251 244 243
761 6 2 1 1 111 118 25 361 382 174
762 6 2 1 1 361 382 174 362 383 175
763 6 2 1 1 362 383 175 363 384 176
764 6 2 1 1 363 384 176 244 251 53
765 6 2 1 1 25 118 24 174 382 171
766 6 2 1 1 174 382 171 175 383 172
767 6 2 1 1 175 383 172 176 384 173
768 6 2 1 1 176 384 173 53 251 52
769 6 2 1 1 14 15 112 141 144 364
770 6 2 1 1 141 144 364 142 145 365
771 6 2 1 1 142 145 365 143 146 366
772 6 2 1 1 143 146 366 42 43 245
773 6 2 1 1 112 15 119 364 144 385
774 6 2 1 1 364 144 385 365 145 386
775 6 2 1 1 365 145 386 366 146 387
776 6 2 1 1 366 146 387 245 43 252
777 6 2 1 1 112 119 120 364 385 388
778 6 2 1 1 364 385 388 365 386 389
779 6 2 1 1 365 386 389 366 387 390
780 6 2 1 1 366 387 390 245 252 253
781 6 2 1 1 120 113 112 388 367 364
782 6 2 1 1 388 367 364 389 368 365
783 6 2 1 1 389 368 365 390 369 366
784 6 2 1 1 390 369 366 253 246 245
785 6 2 1 1 113 120 114 367 388 370
786 6 2 1 1 367 388 370 368 389 371
787 6 2 1 1 368 389 371 369 390 372
788 6 2 1 1 369 390 372 246 253 247
789 6 2 1 1 114 120 121 370 388 391
790 6 2 1 1 370 388 391 371 389 392
791 6 2 1 1 371 389 392 372 390 393
792 6 2 1 1 372 390 393 247 253 254
793 6 2 1 1 114 121 122 370 391 394
794 6 2 1 1 370 391 394 371 392 395
795 6 2 1 1 371 392 395 372 393 396
796 6 2 1 1 372 393 396 247 254 255
797 6 2 1 1 122 115 114 394 373 370
798 6 2 1 1 394 373 370 395 374 371
799 6 2 1 1 395 374 371 396 375 372
800 6 2 1 1 396 375 372 255 248 247
801 6 2 1 1 115 122 116 373 394 376
802 6 2 1 1 373 394 376 374 395 377
803 6 2 1 1 374 395 377 375 396 378
804 6 2 1 1 375 396 378 248 255 249
805 6 2 1 1 116 122 123 376 394 397
806 6 2 1 1 376 394 397 377 395 398
807 6 2 1 1 377 395 398 378 396 399
808 6 2 1 1 378 396 399 249 255 256
809 6 2 1 1 116 123 124 376 397 400
810 6 2 1 1 376 397 400 377 398 401
811 6 2 1 1 377 398 401 378 399 402
812 6 2 1 1 378 399 402 249 256 257
813 6 2 1 1 124 117 116 400 379 376
814 6 2 1 1 400 379 376 401 380 377
815 6 2 1 1 401 380 377 402 381 378
816 6 2 1 1 402 381 378 257 250 249
817 6 2 1 1 117 124 118 379 400 382
818 6 2 1 1 379 400 382 380 401 383
819 6 2 1 1 380 401 383 381 402 384
820 6 2 1 1 381 402 384 250 257 251
821 6 2 1 1 118 124 125 382 400 403
822 6 2 1 1 382 400 403 383 401 404
823 6 2 1 1 383 401 404 384 402 405
824 6 2 1 1 384 402 405 251 257 258
825 6 2 1 1 118 125 23 382 403 168
826 6 2 1 1 382 403 168 383 404 169
827 6 2 1 1 383 404 169 384 405 170
828 6 2 1 1 384 405 170 251 258 51
829 6 2 1 1 23 24 118 168 171 382
830 6 2 1 1 168 171 382 169 172 383
831 6 2 1 1 169 172 383 170 173 384
832 6 2 1 1 170 173 384 51 52 251
833 6 2 1 1 15 2 16 144 68 147
834 6 2 1 1 144 68 147 145 69 148
835 6 2 1 1 145 69 148 146 70 149
836 6 2 1 1 146 70 149 43 6 44
837 6 2 1 1 16 119 15 147 385 144
838 6 2 1 1 147 385 144 148 386 145
839 6 2 1 1 148 386 145 149 387 146
840 6 2 1 1 149 387 146 44 252 43
841 6 2 1 1 119 16 120 385 147 388
842 6 2 1 1 385 147 388 386 148 389
843 6 2 1 1 386 148 389 387 149 390
844 6 2 1 1 387 149 390 252 44 253
845 6 2 1 1 120 16 17 388 147 150
846 6 2 1 1 388 147 150 389 148 151
847 6 2 1 1 389 148 151 390 149 152
848 6 2 1 1 390 149 152 253 44 45
849 6 2 1 1 120 17 18 388 150 153
850 6 2 1 1 388 150 153 389 151 154
851 6 2 1 1 389 151 154 390 152 155
852 6 2 1 1 390 152 155 253 45 46
853 6 2 1 1 18 121 120 153 391 388
854 6 2 1 1 153 391 388 154 392 389
855 6 2 1 1 154 392 389 155 393 390
856 6 2 1 1 155 393 390 46 254 253
857 6 2 1 1 121 18 122 391 153 394
858 6 2 1 1 391 153 394 392 154 395
859 6 2 1 1 392 154 395 393 155 396
860 6 2 1 1 393 155 396 254 46 255
861 6 2 1 1 122 18 19 394 153 156
862 6 2 1 1 394 153 156 395 154 157
863 6 2 1 1 395 154 157 396 155 158
864 6 2 1 1 396 155 158 255 46 47
865 6 2 1 1 122 19 20 394 156 159
866 6 2 1 1 394 156 159 395 157 160
867 6 2 1 1 395 157 160 396 158 161
868 6 2 1 1 396 158 161 255 47 48
869 6 2 1 1 20 123 122 159 397 394
870 6 2 1 1 159 397 394 160 398 395
871 6 2 1 1 160 398 395 161 399 396
872 6 2 1 1 161 399 396 48 256 255
873 6 2 1 1 123 20 124 397 159 400
874 6 2 1 1 397 159 400 398 160 401
875 6 2 1 1 398 160 401 399 161 402
876 6 2 1 1 399 161 402 256 48 257
877 6 2 1 1 124 20 21 400 159 162
878 6 2 1 1 400 159 162 401 160 163
879 6 2 1 1 401 160 163 402 161 164
880 6 2 1 1 402 161 164 257 48 49
881 6 2 1 1 124 21 22 400 162 165
882 6 2 1 1 400 162 165 401 163 166
883 6 2 1 1 401 163 166 402 164 167
884 6 2 1 1 402 164 167 257 49 50
885 6 2 1 1 22 125 124 165 403 400
886 6 2 1 1 165 403 400 166 404 401
887 6 2 1 1 166 404 401 167 405 402
888 6 2 1 1 167 405 402 50 258 257
889 6 2 1 1 125 22 23 403 165 168
890 6 2 1 1 403 165 168 404 166 169
891 6 2 1 1 404 166 169 405 167 170
892 6 2 1 1 405 167 170 258 50 51
893 6 2 1 1 23 22 3 168 165 71
894 6 2 1 1 168 165 71 169 166 72
895 6 2 1 1 169 166 72 170 167 73
896 6 2 1 1 170 167 73 51 50 7
$EndElements
